<?xml version="1.0" standalone="no"?>
<!DOCTYPE svg PUBLIC "-//W3C//DTD SVG 20010904//EN"
 "http://www.w3.org/TR/2001/REC-SVG-20010904/DTD/svg10.dtd">
<svg version="1.0" xmlns="http://www.w3.org/2000/svg"
 width="192.000000pt" height="192.000000pt" viewBox="0 0 192.000000 192.000000"
 preserveAspectRatio="xMidYMid meet">

<g transform="translate(0.000000,192.000000) scale(0.100000,-0.100000)"
fill="#000000" stroke="none">
<path d="M840 1884 c-78 -15 -156 -55 -192 -98 -14 -17 -29 -20 -100 -21 -68
-1 -95 -7 -142 -28 -101 -47 -172 -124 -201 -221 -10 -34 -30 -64 -66 -100
-85 -85 -122 -217 -88 -314 9 -27 8 -36 -10 -61 -32 -45 -45 -120 -31 -186 10
-46 20 -65 64 -109 28 -29 61 -56 72 -60 17 -5 22 -17 27 -60 5 -55 30 -114
65 -154 42 -48 127 -92 177 -92 13 0 28 -6 34 -14 6 -7 32 -19 56 -26 l45 -13
0 -153 0 -154 50 0 50 0 0 136 c0 126 1 136 18 129 43 -16 108 -16 152 0 54
21 66 21 149 5 80 -16 178 -1 233 36 21 13 40 24 43 24 3 0 5 -74 5 -165 l0
-165 50 0 50 0 0 159 0 158 48 6 c63 8 109 32 135 73 19 28 32 36 87 48 96 22
136 41 180 87 44 45 56 86 47 154 -5 37 -3 49 16 72 37 45 52 93 51 163 -2 75
-19 120 -66 171 -30 33 -33 42 -34 101 -2 112 -69 222 -171 278 -28 15 -44 32
-48 49 -11 49 -79 135 -135 173 -71 47 -118 61 -210 63 -70 1 -78 3 -125 38
-27 20 -70 43 -94 52 -47 16 -151 26 -191 19z m-190 -814 c0 -5 -20 -23 -44
-39 -78 -54 -99 -97 -80 -168 10 -37 22 -27 41 33 18 58 36 75 56 55 6 -6 24
-11 39 -11 l28 0 0 -74 c0 -59 5 -82 26 -122 34 -64 68 -99 123 -127 155 -76
332 54 336 248 1 66 3 70 26 73 13 2 28 8 33 13 16 15 46 10 46 -7 0 -8 10
-38 22 -67 20 -47 23 -49 29 -27 23 81 4 128 -68 176 -49 32 -66 54 -43 54 14
0 60 -22 60 -29 0 -4 14 -15 30 -24 48 -29 64 -69 56 -146 -12 -113 -24 -134
-50 -85 -6 10 -14 22 -19 25 -4 3 -15 28 -25 55 -16 45 -20 49 -42 44 -20 -5
-24 -11 -22 -34 5 -36 -16 -121 -40 -169 -48 -95 -152 -154 -257 -144 -69 6
-105 23 -160 76 -56 54 -91 135 -91 211 0 57 -1 60 -25 60 -19 0 -28 -7 -36
-27 -12 -35 -37 -83 -55 -108 -22 -30 -34 -7 -41 83 -7 98 3 126 59 167 59 42
88 54 88 35z"/>
</g>
</svg>
